<svg width="512" height="512" viewBox="0 0 135 150" fill="none" xmlns="http://www.w3.org/2000/svg">
<mask id="path-1-outside-1_102:2" maskUnits="userSpaceOnUse" x="0.0880127" y="0.631989" width="512" height="511" fill="black">
<rect fill="white" x="0.0880127" y="0.631989" width="512" height="511"/>
<path fill-rule="evenodd" clip-rule="evenodd" d="M64.704 11.824C56.736 7.696 47.28 5.632 36.336 5.632H5.088V106H30.6753C31.7761 110.68 33.4897 115.093 35.816 119.24C40.328 127.016 46.424 133.112 54.104 137.528C61.784 141.848 70.28 144.008 79.592 144.008C89 144.008 97.544 141.848 105.224 137.528C112.904 133.112 118.952 127.016 123.368 119.24C127.784 111.464 129.992 102.632 129.992 92.744C129.992 82.856 127.784 74.024 123.368 66.248C118.952 58.472 112.904 52.424 105.224 48.104C99.9303 45.0601 94.2262 43.0653 88.1115 42.1195C87.0329 37.4682 85.3744 33.1777 83.136 29.248C78.912 21.664 72.768 15.856 64.704 11.824ZM74.3845 41.718C72.6994 35.8288 69.8566 30.8561 65.856 26.8C59.04 19.792 49.2 16.288 36.336 16.288H18.192V95.2H29.2391C29.2077 94.3882 29.192 93.5695 29.192 92.744C29.192 82.952 31.4 74.168 35.816 66.392C40.328 58.52 46.424 52.424 54.104 48.104C60.3282 44.5251 67.0884 42.3964 74.3845 41.718ZM42.6239 94.9099C42.5973 94.196 42.584 93.474 42.584 92.744C42.584 84.68 44.168 77.672 47.336 71.72C50.6 65.672 55.016 61.016 60.584 57.752C65.2373 55.0242 70.4269 53.4363 76.1529 52.9881C76.2003 53.984 76.224 54.9986 76.224 56.032C76.224 68.416 72.816 78.064 66 84.976C60.3322 90.6438 52.5401 93.9551 42.6239 94.9099ZM44.1824 105.639C51.866 104.906 58.7065 103.059 64.704 100.096C72.768 96.064 78.912 90.304 83.136 82.816C87.456 75.232 89.616 66.304 89.616 56.032C89.616 55.3686 89.607 54.7109 89.589 54.0587C92.788 54.8747 95.7917 56.1057 98.6 57.752C104.168 61.016 108.536 65.672 111.704 71.72C114.968 77.672 116.6 84.68 116.6 92.744C116.6 100.712 114.968 107.72 111.704 113.768C108.536 119.816 104.12 124.472 98.456 127.736C92.888 131 86.6 132.632 79.592 132.632C72.584 132.632 66.248 131 60.584 127.736C55.016 124.472 50.6 119.816 47.336 113.768C46.0054 111.228 44.9542 108.518 44.1824 105.639Z"/>
</mask>
<path fill-rule="evenodd" clip-rule="evenodd" d="M64.704 11.824C56.736 7.696 47.28 5.632 36.336 5.632H5.088V106H30.6753C31.7761 110.68 33.4897 115.093 35.816 119.24C40.328 127.016 46.424 133.112 54.104 137.528C61.784 141.848 70.28 144.008 79.592 144.008C89 144.008 97.544 141.848 105.224 137.528C112.904 133.112 118.952 127.016 123.368 119.24C127.784 111.464 129.992 102.632 129.992 92.744C129.992 82.856 127.784 74.024 123.368 66.248C118.952 58.472 112.904 52.424 105.224 48.104C99.9303 45.0601 94.2262 43.0653 88.1115 42.1195C87.0329 37.4682 85.3744 33.1777 83.136 29.248C78.912 21.664 72.768 15.856 64.704 11.824ZM74.3845 41.718C72.6994 35.8288 69.8566 30.8561 65.856 26.8C59.04 19.792 49.2 16.288 36.336 16.288H18.192V95.2H29.2391C29.2077 94.3882 29.192 93.5695 29.192 92.744C29.192 82.952 31.4 74.168 35.816 66.392C40.328 58.52 46.424 52.424 54.104 48.104C60.3282 44.5251 67.0884 42.3964 74.3845 41.718ZM42.6239 94.9099C42.5973 94.196 42.584 93.474 42.584 92.744C42.584 84.68 44.168 77.672 47.336 71.72C50.6 65.672 55.016 61.016 60.584 57.752C65.2373 55.0242 70.4269 53.4363 76.1529 52.9881C76.2003 53.984 76.224 54.9986 76.224 56.032C76.224 68.416 72.816 78.064 66 84.976C60.3322 90.6438 52.5401 93.9551 42.6239 94.9099ZM44.1824 105.639C51.866 104.906 58.7065 103.059 64.704 100.096C72.768 96.064 78.912 90.304 83.136 82.816C87.456 75.232 89.616 66.304 89.616 56.032C89.616 55.3686 89.607 54.7109 89.589 54.0587C92.788 54.8747 95.7917 56.1057 98.6 57.752C104.168 61.016 108.536 65.672 111.704 71.72C114.968 77.672 116.6 84.68 116.6 92.744C116.6 100.712 114.968 107.72 111.704 113.768C108.536 119.816 104.12 124.472 98.456 127.736C92.888 131 86.6 132.632 79.592 132.632C72.584 132.632 66.248 131 60.584 127.736C55.016 124.472 50.6 119.816 47.336 113.768C46.0054 111.228 44.9542 108.518 44.1824 105.639Z" fill="#01C8EE"/>
<path d="M64.704 11.824L62.404 16.2636L62.4358 16.2801L62.4679 16.2961L64.704 11.824ZM5.088 5.632V0.631996H0.0880013V5.632H5.088ZM5.088 106H0.0880013V111H5.088V106ZM30.6753 106L35.5424 104.855L34.6356 101H30.6753V106ZM35.816 119.24L31.4553 121.686L31.4731 121.718L31.4913 121.749L35.816 119.24ZM54.104 137.528L51.6116 141.863L51.6321 141.874L51.6527 141.886L54.104 137.528ZM105.224 137.528L107.675 141.886L107.696 141.874L107.716 141.863L105.224 137.528ZM123.368 66.248L127.716 63.7789L123.368 66.248ZM105.224 48.104L102.732 52.4385L102.752 52.4503L102.773 52.4619L105.224 48.104ZM88.1115 42.1195L83.2407 43.249L84.0047 46.5438L87.3472 47.0608L88.1115 42.1195ZM83.136 29.248L78.7678 31.6809L78.7795 31.7019L78.7914 31.7228L83.136 29.248ZM74.3845 41.718L74.8474 46.6965L80.85 46.1384L79.1916 40.3425L74.3845 41.718ZM65.856 26.8L62.2717 30.2861L62.2839 30.2986L62.2962 30.3111L65.856 26.8ZM18.192 16.288V11.288H13.192V16.288H18.192ZM18.192 95.2H13.192V100.2H18.192V95.2ZM29.2391 95.2V100.2H34.4361L34.2353 95.0069L29.2391 95.2ZM35.816 66.392L31.478 63.9056L31.4731 63.9142L31.4682 63.9229L35.816 66.392ZM54.104 48.104L56.5553 52.4619L56.5759 52.4503L56.5964 52.4385L54.104 48.104ZM42.6239 94.9099L37.6274 95.096L37.8247 100.395L43.1031 99.8869L42.6239 94.9099ZM47.336 71.72L42.9359 69.3453L42.929 69.358L42.9223 69.3708L47.336 71.72ZM60.584 57.752L58.0554 53.4385L60.584 57.752ZM76.1529 52.9881L81.1473 52.7505L80.9022 47.6012L75.7628 48.0034L76.1529 52.9881ZM66 84.976L69.5355 88.5115L69.5479 88.4992L69.5602 88.4867L66 84.976ZM64.704 100.096L66.9184 104.579L66.9293 104.574L66.9401 104.568L64.704 100.096ZM44.1824 105.639L43.7078 100.661L37.8221 101.223L39.3529 106.933L44.1824 105.639ZM83.136 82.816L78.7914 80.3412L78.7862 80.3503L78.7811 80.3594L83.136 82.816ZM89.589 54.0587L90.8247 49.2138L84.408 47.5772L84.5909 54.1968L89.589 54.0587ZM98.6 57.752L101.129 53.4385H101.129L98.6 57.752ZM111.704 71.72L107.275 74.04L107.297 74.0823L107.32 74.1242L111.704 71.72ZM111.704 113.768L107.304 111.393L107.289 111.421L107.275 111.448L111.704 113.768ZM98.456 127.736L95.9595 123.404L95.9434 123.413L95.9274 123.423L98.456 127.736ZM60.584 127.736L58.0554 132.049L58.0714 132.059L58.0875 132.068L60.584 127.736ZM47.336 113.768L42.9068 116.088L42.9212 116.115L42.9359 116.143L47.336 113.768ZM36.336 10.632C46.653 10.632 55.2863 12.5761 62.404 16.2636L67.004 7.38441C58.1857 2.8159 47.907 0.631996 36.336 0.631996V10.632ZM5.088 10.632H36.336V0.631996H5.088V10.632ZM10.088 106V5.632H0.0880013V106H10.088ZM30.6753 101H5.088V111H30.6753V101ZM40.1767 116.794C38.0818 113.059 36.5373 109.085 35.5424 104.855L25.8081 107.145C27.0149 112.275 28.8976 117.127 31.4553 121.686L40.1767 116.794ZM56.5964 133.193C49.6884 129.221 44.2194 123.76 40.1407 116.731L31.4913 121.749C36.4366 130.272 43.1596 137.003 51.6116 141.863L56.5964 133.193ZM79.592 139.008C71.0882 139.008 63.4441 137.045 56.5553 133.17L51.6527 141.886C60.1239 146.651 69.4718 149.008 79.592 149.008V139.008ZM102.773 133.17C95.8918 137.041 88.2014 139.008 79.592 139.008V149.008C89.7986 149.008 99.1962 146.655 107.675 141.886L102.773 133.17ZM119.02 116.771C115.041 123.778 109.63 129.227 102.732 133.193L107.716 141.863C116.178 136.997 122.863 130.254 127.716 121.709L119.02 116.771ZM124.992 92.744C124.992 101.86 122.965 109.825 119.02 116.771L127.716 121.709C132.603 113.103 134.992 103.404 134.992 92.744H124.992ZM119.02 68.7171C122.965 75.6629 124.992 83.6279 124.992 92.744H134.992C134.992 82.0841 132.603 72.3851 127.716 63.7789L119.02 68.7171ZM102.773 52.4619C109.648 56.3294 115.046 61.719 119.02 68.7171L127.716 63.7789C122.858 55.225 116.16 48.5186 107.675 43.7461L102.773 52.4619ZM87.3472 47.0608C92.8617 47.9137 97.9789 49.7057 102.732 52.4385L107.716 43.7695C101.882 40.4146 95.5907 38.2169 88.8758 37.1783L87.3472 47.0608ZM78.7914 31.7228C80.7772 35.209 82.2654 39.0428 83.2407 43.249L92.9823 40.9901C91.8005 35.8935 89.9716 31.1464 87.4806 26.7732L78.7914 31.7228ZM62.4679 16.2961C69.6691 19.8967 75.0529 25.0109 78.7678 31.6809L87.5042 26.8151C82.7711 18.3171 75.8669 11.8153 66.9401 7.35186L62.4679 16.2961ZM79.1916 40.3425C77.294 33.7105 74.0483 27.9857 69.4158 23.2889L62.2962 30.3111C65.6648 33.7265 68.1048 37.947 69.5774 43.0935L79.1916 40.3425ZM69.4403 23.3139C61.4125 15.06 50.1056 11.288 36.336 11.288V21.288C48.2944 21.288 56.6675 24.524 62.2717 30.2861L69.4403 23.3139ZM36.336 11.288H18.192V21.288H36.336V11.288ZM13.192 16.288V95.2H23.192V16.288H13.192ZM18.192 100.2H29.2391V90.2H18.192V100.2ZM34.2353 95.0069C34.2065 94.2604 34.192 93.5061 34.192 92.744H24.192C24.192 93.6329 24.2089 94.5159 24.2428 95.3931L34.2353 95.0069ZM34.192 92.744C34.192 83.7332 36.2151 75.8142 40.1638 68.8611L31.4682 63.9229C26.5849 72.5218 24.192 82.1708 24.192 92.744H34.192ZM40.154 68.8784C44.2314 61.7646 49.6856 56.3261 56.5553 52.4619L51.6527 43.7461C43.1624 48.5219 36.4246 55.2754 31.478 63.9056L40.154 68.8784ZM56.5964 52.4385C62.1851 49.225 68.251 47.3099 74.8474 46.6965L73.9216 36.7395C65.9257 37.483 58.4713 39.8252 51.6116 43.7695L56.5964 52.4385ZM37.584 92.744C37.584 93.5347 37.5984 94.3188 37.6274 95.096L47.6204 94.7238C47.5962 94.0732 47.584 93.4133 47.584 92.744H37.584ZM42.9223 69.3708C39.3007 76.175 37.584 84.0205 37.584 92.744H47.584C47.584 85.3395 49.0354 79.169 51.7497 74.0692L42.9223 69.3708ZM58.0554 53.4385C51.6462 57.1956 46.6052 62.5463 42.9359 69.3453L51.7361 74.0947C54.5948 68.7977 58.3858 64.8364 63.1126 62.0655L58.0554 53.4385ZM75.7628 48.0034C69.3324 48.5066 63.4034 50.3034 58.0554 53.4385L63.1126 62.0655C67.0711 59.745 71.5214 58.3659 76.543 57.9729L75.7628 48.0034ZM81.224 56.032C81.224 54.9222 81.1986 53.8283 81.1473 52.7505L71.1586 53.2258C71.2021 54.1397 71.224 55.075 71.224 56.032H81.224ZM69.5602 88.4867C77.5347 80.3999 81.224 69.3507 81.224 56.032H71.224C71.224 67.4813 68.0973 75.7281 62.4398 81.4653L69.5602 88.4867ZM43.1031 99.8869C53.8858 98.8487 62.863 95.184 69.5355 88.5115L62.4645 81.4405C57.8013 86.1036 51.1945 89.0616 42.1447 89.9329L43.1031 99.8869ZM62.4896 95.6131C57.1141 98.2685 50.878 99.9778 43.7078 100.661L44.657 110.616C52.854 109.835 60.2989 107.849 66.9184 104.579L62.4896 95.6131ZM78.7811 80.3594C75.0713 86.9358 69.6864 92.0146 62.4679 95.6239L66.9401 104.568C75.8496 100.113 82.7527 93.6722 87.4909 85.2726L78.7811 80.3594ZM84.616 56.032C84.616 65.5906 82.6114 73.635 78.7914 80.3412L87.4806 85.2908C92.3006 76.829 94.616 67.0174 94.616 56.032H84.616ZM84.5909 54.1968C84.6076 54.8022 84.616 55.4139 84.616 56.032H94.616C94.616 55.3234 94.6064 54.6196 94.5871 53.9206L84.5909 54.1968ZM101.129 53.4385C97.9106 51.5521 94.471 50.1438 90.8247 49.2138L88.3533 58.9036C91.1051 59.6055 93.6728 60.6594 96.0714 62.0655L101.129 53.4385ZM116.133 69.4C112.557 62.5728 107.552 57.2038 101.129 53.4385L96.0714 62.0655C100.784 64.8282 104.515 68.7712 107.275 74.04L116.133 69.4ZM121.6 92.744C121.6 83.9975 119.826 76.1318 116.088 69.3158L107.32 74.1242C110.11 79.2122 111.6 85.3625 111.6 92.744H121.6ZM116.104 116.143C119.82 109.256 121.6 101.408 121.6 92.744H111.6C111.6 100.016 110.116 106.184 107.304 111.393L116.104 116.143ZM100.953 132.068C107.476 128.309 112.545 122.937 116.133 116.088L107.275 111.448C104.527 116.695 100.764 120.635 95.9595 123.404L100.953 132.068ZM79.592 137.632C87.4102 137.632 94.5845 135.801 100.985 132.049L95.9274 123.423C91.1915 126.199 85.7898 127.632 79.592 127.632V137.632ZM58.0875 132.068C64.5654 135.801 71.773 137.632 79.592 137.632V127.632C73.395 127.632 67.9306 126.199 63.0805 123.404L58.0875 132.068ZM42.9359 116.143C46.6052 122.942 51.6462 128.292 58.0554 132.049L63.1126 123.423C58.3858 120.652 54.5948 116.69 51.7361 111.393L42.9359 116.143ZM39.3529 106.933C40.2162 110.154 41.3988 113.209 42.9068 116.088L51.7652 111.448C50.6119 109.246 49.6921 106.882 49.0119 104.344L39.3529 106.933Z" fill="#01C8EE" mask="url(#path-1-outside-1_102:2)"/>
</svg>
